<?xml version="1.0" standalone="no"?>
<!DOCTYPE svg PUBLIC "-//W3C//DTD SVG 20010904//EN"
 "http://www.w3.org/TR/2001/REC-SVG-20010904/DTD/svg10.dtd">
<svg version="1.0" xmlns="http://www.w3.org/2000/svg"
 width="512.000000pt" height="512.000000pt" viewBox="0 0 512.000000 512.000000"
 preserveAspectRatio="xMidYMid meet">

<g transform="translate(0.000000,512.000000) scale(0.100000,-0.100000)"
fill="#000000" stroke="none">
<path d="M0 2560 l0 -2560 2560 0 2560 0 0 2560 0 2560 -2560 0 -2560 0 0
-2560z m2860 2215 c141 -20 364 -73 485 -115 350 -123 681 -349 907 -620 276
-330 445 -722 510 -1185 17 -118 16 -474 -1 -595 -71 -517 -283 -959 -621
-1301 -396 -400 -977 -632 -1580 -633 -349 0 -703 81 -1015 233 -350 171 -611
398 -827 720 -406 607 -492 1450 -217 2144 257 647 761 1100 1429 1283 323 89
624 111 930 69z"/>
<path d="M1695 3487 c-69 -39 -105 -138 -74 -200 6 -12 169 -181 362 -374
l352 -353 -352 -352 c-193 -194 -356 -363 -362 -375 -32 -63 9 -167 79 -203
43 -22 100 -26 133 -9 12 6 181 169 375 362 l352 352 353 -352 c193 -193 362
-356 374 -362 62 -31 161 5 200 74 24 43 30 103 12 138 -6 12 -169 181 -362
375 l-352 352 352 353 c193 193 356 362 362 374 31 62 -5 161 -74 200 -43 24
-103 30 -138 12 -12 -6 -181 -169 -374 -362 l-353 -352 -352 352 c-194 193
-363 356 -375 362 -35 18 -95 12 -138 -12z"/>
</g>
</svg>
